#!OML:ASF F:\VICON\USERDATA\INSTALL\rory3\rory3.ASF
:FULLY-SPECIFIED
:DEGREES
222
root 0.328299 17.8141 13.2737 184.714 -9.87402 192.741
lowerback -5.09487 7.30079 2.21614
upperback -12.1784 8.49051 -1.19106
thorax -9.57543 3.384 -2.62792
lowerneck -5.81438 3.12804 1.34721
upperneck 26.3428 -1.16574 13.0641
head 9.31253 0.0427584 4.06404
rclavicle -1.20066e-013 -1.08139e-013
rhumerus 188.548 -226.476 130.642
rradius 68.2912
rwrist -16.0749
rhand 10.3525 7.70405
rfingers 7.12502
rthumb 35.4606 -18.7432
lclavicle -1.20066e-013 -1.08139e-013
lhumerus 10.2861 -7.80533 59.3847
lradius 21.3046
lwrist -20.3735
lhand -9.88758 22.7443
lfingers 7.12502
lthumb 16.0919 52.0962
rfemur -87.4662 -12.0235 60.3897
rtibia 113.161
rfoot 54.8221 -21.7876
rtoes -15.3674
lfemur -18.9553 -27.9917 -9.37895
ltibia 22.0197
lfoot -1.25033 -0.0610705
ltoes -28.2907
223
root 0.226251 17.752 13.3323 185.714 -5.01675 192.404
lowerback -5.16069 7.62056 2.30797
upperback -12.361 8.81762 -1.29516
thorax -9.69698 3.48207 -2.78819
lowerneck -6.11914 4.03778 1.64799
upperneck 26.4064 -0.105202 13.5059
head 9.3236 0.597608 4.26974
rclavicle -3.02153e-014 -9.54166e-015
rhumerus 189.203 -226.789 131.355
rradius 69.1839
rwrist -16.2434
rhand 11.3924 9.22967
rfingers 7.12502
rthumb 36.4457 -16.9761
lclavicle -3.02153e-014 -9.54166e-015
lhumerus 10.0693 -7.61988 60.515
lradius 20.7587
lwrist -20.9347
lhand -9.81529 22.8158
lfingers 7.12502
lthumb 16.1615 52.162
rfemur -87.9283 -12.144 61.1801
rtibia 112.724
rfoot 56.3336 -18.0162
rtoes -21.6667
lfemur -18.7062 -28.6898 -8.94441
ltibia 21.4063
lfoot -3.73196 -0.326073
ltoes -33.1534
224
root 0.11911 17.6627 13.3896 186.739 -0.0579067 192.123
lowerback -5.4182 5.48569 2.4297
upperback -12.3253 9.3109 -0.704399
thorax -9.64426 5.11235 -2.45929
lowerneck -6.31915 5.28062 2.01467
upperneck 26.3227 1.58768 13.5908
head 9.21689 1.43216 4.38695
rclavicle 6.99722e-014 7.95139e-014
rhumerus 191.685 -227.771 133.024
rradius 69.991
rwrist -16.6827
rhand 11.3906 9.37956
rfingers 7.12502
rthumb 36.444 -16.8266
lclavicle 6.99722e-014 7.95139e-014
lhumerus 9.34934 -9.69643 60.695
lradius 21.6885
lwrist -18.4069
lhand -10.2313 28.644
lfingers 7.12502
lthumb 15.7609 58.0223
rfemur -88.5682 -11.8362 61.9132
rtibia 112.422
rfoot 58.6754 -15.6351
rtoes -21.1401
lfemur -18.5895 -29.0824 -8.61762
ltibia 20.9322
lfoot -6.43551 -0.600734
ltoes -40.4642
225
root 0.0145447 17.5616 13.4456 187.699 5.17803 191.923
lowerback -5.61054 5.97849 2.14031
upperback -12.7035 10.0035 -0.682617
thorax -9.99299 5.47836 -2.31106
lowerneck -4.64917 6.03092 2.85748
upperneck 25.3336 2.68932 13.6088
head 8.50786 1.91039 4.23778
rclavicle -1.19271e-014 -9.54166e-015
rhumerus 191.159 -227.871 133.11
rradius 70.8701
rwrist -16.6991
rhand 11.5734 9.71195
rfingers 7.12502
rthumb 36.6171 -16.4505
lclavicle -1.19271e-014 -9.54166e-015
lhumerus 9.44054 -3.48358 64.2037
lradius 18.9828
lwrist -24.9606
lhand -10.9376 24.1531
lfingers 7.12502
lthumb 15.0806 53.5838
rfemur -89.0268 -11.2747 62.6779
rtibia 112.069
rfoot 58.7893 -14.5786
rtoes -24.9228
lfemur -18.4008 -29.1998 -8.35369
ltibia 20.3209
lfoot -9.21704 -0.851177
ltoes -42.0364
226
root -0.0942949 17.4599 13.4955 188.492 10.394 191.712
lowerback -6.22749 5.44523 1.85586
upperback -11.164 8.83276 0.492089
thorax -8.15265 4.87407 -0.661768
lowerneck -8.46355 7.78344 1.0217
upperneck 25.9392 5.49927 13.7259
head 9.14482 3.33569 5.01284
rclavicle 1.22451e-013 5.56597e-014
rhumerus 198.961 -228.462 138.88
rradius 71.5673
rwrist -17.0898
rhand 11.3675 10.0662
rfingers 7.12502
rthumb 36.4222 -16.1454
lclavicle 1.22451e-013 5.56597e-014
lhumerus 9.9295 0.703147 64.867
lradius 18.6505
lwrist -24.4299
lhand -11.4674 25.4205
lfingers 7.12502
lthumb 14.5702 54.8888
rfemur -89.4124 -11.2812 63.5276
rtibia 111.711
rfoot 59.6556 -13.7893
rtoes -24.765
lfemur -18.4117 -29.4597 -8.22694
ltibia 20.1381
lfoot -12.0252 -2.34214
ltoes -33.3654
227
root -0.200994 17.3551 13.5438 189.316 15.5977 191.719
lowerback -5.88992 6.21492 2.01286
upperback -11.9805 9.95402 -0.11839
thorax -9.12253 5.39005 -1.51317
lowerneck -6.23653 8.03329 2.82602
upperneck 25.0133 5.60413 13.5835
head 8.50172 3.36904 4.50982
rclavicle 3.81667e-014 4.77083e-014
rhumerus 195.208 -227.863 136.644
rradius 72.7895
rwrist -16.7558
rhand 11.0701 9.44557
rfingers 7.12502
rthumb 36.1406 -16.8363
lclavicle 3.81667e-014 4.77083e-014
lhumerus 9.15969 -3.48692 65.193
lradius 19.1364
lwrist -22.8021
lhand -11.1047 24.8733
lfingers 7.12502
lthumb 14.9196 54.316
rfemur -89.6629 -11.2458 64.5854
rtibia 111.201
rfoot 60.4883 -12.8749
rtoes -23.2126
lfemur -17.4487 -27.5683 -9.03844
ltibia 20.0333
lfoot -14.9489 -1.14717
ltoes -39.4163
